<?xml version="1.0" encoding="utf-8"?>
<!-- Generator: Adobe Illustrator 21.0.2, SVG Export Plug-In . SVG Version: 6.00 Build 0)  -->
<svg version="1.1" id="图层_1" xmlns="http://www.w3.org/2000/svg" xmlns:xlink="http://www.w3.org/1999/xlink" x="0px" y="0px"
	 viewBox="0 0 400 400" style="enable-background:new 0 0 400 400;" xml:space="preserve">
<style type="text/css">
	.st0{fill:#60BC44;}
</style>
<path class="st0" d="M320.3,154.5c0-9.8-6.9-21.9-15.5-26.7l-78.6-45.3c-8.5-5-22.4-4.9-30.8,0L117,128c-8.5,4.8-15.5,17-15.5,26.8
	l0.1,90.7c0,9.8,6.9,21.9,15.5,26.7l78.6,45.3c8.5,5,22.4,4.9,30.8,0l31.3-18.1l-22.4-38.9c-7.6,3.1-15.9,4.8-24.6,4.8
	c-35.9-0.1-64.9-29.3-64.8-65.3c0.1-36,29.2-65.1,65-65.1c14.6,0,28,4.9,38.9,13.1c11,7.9,19.3,19.4,23,32.8
	c1.9,6.1,2.9,12.7,2.9,19.4c0,21.4-10.3,40.4-26.2,52.2l22.3,38.8l33.1-19.1c8.5-4.8,15.5-17,15.5-26.8L320.3,154.5z"/>
<ellipse transform="matrix(1.839170e-02 -0.9998 0.9998 1.839170e-02 7.2024 407.3394)" class="st0" cx="211.1" cy="200" rx="49.7" ry="49.7"/>
</svg>
